<svg width="130" height="36" viewBox="0 0 130 36" fill="none" xmlns="http://www.w3.org/2000/svg">
<g filter="url(#filter0_d_528_550)">
<mask id="path-1-inside-1_528_550" fill="white">
<path d="M5.90595 4.662V10.2626C5.90595 11.1813 5.90595 12.2132 4 12.2132V13.7264V13.7468V15.2221C5.90595 15.2221 5.90595 16.2534 5.90595 17.1727V22.7728C5.90595 27.1192 8.28734 27.4348 12.3367 27.4348V24.0543C10.4307 24.0543 9.71666 23.7737 9.71666 22.6893V17.1442C9.71666 15.8637 9.80457 14.5262 8.68683 13.7171C9.80457 12.9092 9.71666 11.5716 9.71666 10.29V4.746C9.71666 3.66275 10.4313 3.381 12.3367 3.381V8.02092e-07C8.28734 -0.000581727 5.90595 0.315002 5.90595 4.662ZM16.6216 4.48058C15.5804 5.36025 15.0601 6.62375 15.0601 8.26992V9.74867H12.8851V12.8386H15.0601V24.0362H19.7864V12.8386H22.7144V9.74867H19.7864V8.694C19.7864 8.15733 19.9443 7.74375 20.2601 7.45325C20.5759 7.16275 21.0274 7.01808 21.6129 7.01808C21.9005 7.01808 23.3699 7.02275 23.3699 7.02275V3.437C23.3699 3.437 20.7463 3.40842 20.3713 3.40842C19.2303 3.40842 17.6628 3.59975 16.6216 4.48058ZM25.4487 7.00992H30.1756V3.437H25.4487V7.00992ZM25.4487 24.0368H30.1756V9.74867H25.4487V24.0368ZM41.8314 9.48442C40.9391 9.48442 40.1299 9.68508 39.4051 10.0852C38.6803 10.4854 38.0715 11.0431 37.5787 11.7553L37.3975 9.74867H32.9774V24.0362H37.6762V13.7637C37.9178 13.4995 38.2084 13.2913 38.5475 13.1431C38.8866 12.9949 39.2747 12.9185 39.7119 12.9185C40.4092 12.9185 40.9367 13.0882 41.2943 13.4266C41.652 13.7661 41.8314 14.3436 41.8314 15.1632V24.0374H46.5439V15.1766C46.5439 13.1956 46.1277 11.7518 45.2964 10.8447C44.4645 9.93767 43.3091 9.48442 41.8314 9.48442ZM60.7964 16.9919C59.9089 16.31 58.5442 15.7961 56.704 15.4531C55.533 15.2431 54.7538 15.0039 54.3687 14.7397C53.9829 14.4766 53.7898 14.154 53.7898 13.776C53.7898 13.3793 53.9572 13.0556 54.2915 12.7995C54.6258 12.544 55.0397 12.4157 55.5324 12.4157C56.2016 12.4157 56.6873 12.5615 56.9893 12.852C57.2913 13.1425 57.4426 13.5695 57.4426 14.1324H62.0158L62.0439 14.0537C62.1001 12.705 61.5332 11.6089 60.3431 10.759C59.153 9.90908 57.5538 9.48383 55.5462 9.48383C53.6402 9.48383 52.1302 9.9225 51.0143 10.7987C49.8989 11.6748 49.3415 12.7412 49.3415 13.9994C49.3415 15.1877 49.7877 16.1262 50.68 16.8122C51.5722 17.4994 52.8969 18.0052 54.6539 18.3312C55.7693 18.5512 56.5383 18.7997 56.9612 19.0767C57.3846 19.3544 57.5957 19.67 57.5957 20.02C57.5957 20.4517 57.433 20.7853 57.1077 21.0169C56.7823 21.2503 56.3039 21.3687 55.6718 21.3687C54.9099 21.3687 54.3214 21.2176 53.9082 20.9189C53.4943 20.6202 53.2784 20.1314 53.2599 19.4536H48.9935L48.966 19.5323C48.9104 20.748 49.4791 21.8487 50.674 22.834C51.8683 23.8204 53.4925 24.3127 55.5468 24.3127C57.5269 24.3127 59.1183 23.8968 60.3221 23.0644C61.5266 22.2326 62.1282 21.175 62.1282 19.8888C62.1282 18.6398 61.6839 17.6738 60.7964 16.9919ZM77.6198 18.0285H77.5361L75.0548 9.74983H72.0844L69.6306 18.0956H69.5469L67.8879 9.74983H63.5378L67.0931 24.0374H71.0677L73.5346 16.4582H73.6183L76.0727 24.0374H80.0604L83.602 9.74983H79.2519L77.6198 18.0285ZM91.6032 9.48433C89.3629 9.47567 87.64 10.1605 86.4367 11.5383C85.2317 12.9156 84.63 14.6918 84.63 16.8659V17.3682C84.63 19.3573 85.2927 21.0128 86.6161 22.3335C87.9408 23.6548 89.7146 24.3145 91.9363 24.3145C93.1354 24.3145 94.2579 24.1628 95.3038 23.8589C96.3492 23.5556 97.2026 23.1753 97.8617 22.7173L96.7469 19.9967C95.9288 20.3233 95.2524 20.5514 94.7178 20.6838C94.1825 20.8168 93.4691 20.8828 92.5768 20.8828C91.6935 20.8828 90.9878 20.6471 90.4579 20.1763C89.9275 19.7038 89.6123 19.1036 89.5094 18.3732L89.5381 18.2933H98.1541V15.9547C98.1541 13.9656 97.5728 12.39 96.4114 11.2274C95.2512 10.0654 93.6473 9.48433 91.6032 9.48433ZM93.5552 15.5067H89.4975L89.4556 15.4414C89.5304 14.6749 89.7373 14.063 90.077 13.6051C90.4155 13.1483 90.925 12.9191 91.6038 12.9191C92.273 12.9191 92.7646 13.1127 93.0821 13.5001C93.3979 13.8874 93.5564 14.4422 93.5564 15.1637L93.5552 15.5067ZM107.418 9.48433C105.177 9.47567 103.456 10.1605 102.251 11.5383C101.048 12.9156 100.445 14.6918 100.445 16.8659V17.3682C100.445 19.3573 101.108 21.0128 102.432 22.3335C103.758 23.6548 105.53 24.3145 107.751 24.3145C108.951 24.3145 110.074 24.1628 111.12 23.8589C112.166 23.5556 113.018 23.1753 113.678 22.7173L112.563 19.9967C111.745 20.3233 111.069 20.5514 110.534 20.6838C109.998 20.8168 109.285 20.8828 108.393 20.8828C107.51 20.8828 106.804 20.6471 106.274 20.1763C105.743 19.7038 105.428 19.1036 105.325 18.3732L105.353 18.2933H113.97V15.9547C113.97 13.9656 113.389 12.39 112.227 11.2274C111.065 10.0654 109.463 9.48433 107.418 9.48433ZM109.369 15.5067H105.313L105.271 15.4414C105.346 14.6749 105.552 14.063 105.891 13.6051C106.229 13.1483 106.739 12.9191 107.418 12.9191C108.087 12.9191 108.58 13.1127 108.897 13.5001C109.214 13.8874 109.371 14.4422 109.371 15.1637V15.5073H109.369V15.5067ZM123.652 20.3309C123.067 20.3309 122.615 20.1863 122.299 19.8958C121.984 19.6053 121.825 19.1905 121.825 18.6538V12.8637H124.277V9.77258H121.825V3.41425H117.099V9.77258H114.923V12.8637H117.099V19.0779C117.099 20.7241 117.619 21.9876 118.66 22.8684C119.7 23.7498 121.267 23.9406 122.41 23.9406C122.786 23.9406 125.409 23.912 125.409 23.912V20.3263C125.409 20.3263 123.941 20.3309 123.652 20.3309Z"/>
</mask>
<path d="M5.90595 4.662V10.2626C5.90595 11.1813 5.90595 12.2132 4 12.2132V13.7264V13.7468V15.2221C5.90595 15.2221 5.90595 16.2534 5.90595 17.1727V22.7728C5.90595 27.1192 8.28734 27.4348 12.3367 27.4348V24.0543C10.4307 24.0543 9.71666 23.7737 9.71666 22.6893V17.1442C9.71666 15.8637 9.80457 14.5262 8.68683 13.7171C9.80457 12.9092 9.71666 11.5716 9.71666 10.29V4.746C9.71666 3.66275 10.4313 3.381 12.3367 3.381V8.02092e-07C8.28734 -0.000581727 5.90595 0.315002 5.90595 4.662ZM16.6216 4.48058C15.5804 5.36025 15.0601 6.62375 15.0601 8.26992V9.74867H12.8851V12.8386H15.0601V24.0362H19.7864V12.8386H22.7144V9.74867H19.7864V8.694C19.7864 8.15733 19.9443 7.74375 20.2601 7.45325C20.5759 7.16275 21.0274 7.01808 21.6129 7.01808C21.9005 7.01808 23.3699 7.02275 23.3699 7.02275V3.437C23.3699 3.437 20.7463 3.40842 20.3713 3.40842C19.2303 3.40842 17.6628 3.59975 16.6216 4.48058ZM25.4487 7.00992H30.1756V3.437H25.4487V7.00992ZM25.4487 24.0368H30.1756V9.74867H25.4487V24.0368ZM41.8314 9.48442C40.9391 9.48442 40.1299 9.68508 39.4051 10.0852C38.6803 10.4854 38.0715 11.0431 37.5787 11.7553L37.3975 9.74867H32.9774V24.0362H37.6762V13.7637C37.9178 13.4995 38.2084 13.2913 38.5475 13.1431C38.8866 12.9949 39.2747 12.9185 39.7119 12.9185C40.4092 12.9185 40.9367 13.0882 41.2943 13.4266C41.652 13.7661 41.8314 14.3436 41.8314 15.1632V24.0374H46.5439V15.1766C46.5439 13.1956 46.1277 11.7518 45.2964 10.8447C44.4645 9.93767 43.3091 9.48442 41.8314 9.48442ZM60.7964 16.9919C59.9089 16.31 58.5442 15.7961 56.704 15.4531C55.533 15.2431 54.7538 15.0039 54.3687 14.7397C53.9829 14.4766 53.7898 14.154 53.7898 13.776C53.7898 13.3793 53.9572 13.0556 54.2915 12.7995C54.6258 12.544 55.0397 12.4157 55.5324 12.4157C56.2016 12.4157 56.6873 12.5615 56.9893 12.852C57.2913 13.1425 57.4426 13.5695 57.4426 14.1324H62.0158L62.0439 14.0537C62.1001 12.705 61.5332 11.6089 60.3431 10.759C59.153 9.90908 57.5538 9.48383 55.5462 9.48383C53.6402 9.48383 52.1302 9.9225 51.0143 10.7987C49.8989 11.6748 49.3415 12.7412 49.3415 13.9994C49.3415 15.1877 49.7877 16.1262 50.68 16.8122C51.5722 17.4994 52.8969 18.0052 54.6539 18.3312C55.7693 18.5512 56.5383 18.7997 56.9612 19.0767C57.3846 19.3544 57.5957 19.67 57.5957 20.02C57.5957 20.4517 57.433 20.7853 57.1077 21.0169C56.7823 21.2503 56.3039 21.3687 55.6718 21.3687C54.9099 21.3687 54.3214 21.2176 53.9082 20.9189C53.4943 20.6202 53.2784 20.1314 53.2599 19.4536H48.9935L48.966 19.5323C48.9104 20.748 49.4791 21.8487 50.674 22.834C51.8683 23.8204 53.4925 24.3127 55.5468 24.3127C57.5269 24.3127 59.1183 23.8968 60.3221 23.0644C61.5266 22.2326 62.1282 21.175 62.1282 19.8888C62.1282 18.6398 61.6839 17.6738 60.7964 16.9919ZM77.6198 18.0285H77.5361L75.0548 9.74983H72.0844L69.6306 18.0956H69.5469L67.8879 9.74983H63.5378L67.0931 24.0374H71.0677L73.5346 16.4582H73.6183L76.0727 24.0374H80.0604L83.602 9.74983H79.2519L77.6198 18.0285ZM91.6032 9.48433C89.3629 9.47567 87.64 10.1605 86.4367 11.5383C85.2317 12.9156 84.63 14.6918 84.63 16.8659V17.3682C84.63 19.3573 85.2927 21.0128 86.6161 22.3335C87.9408 23.6548 89.7146 24.3145 91.9363 24.3145C93.1354 24.3145 94.2579 24.1628 95.3038 23.8589C96.3492 23.5556 97.2026 23.1753 97.8617 22.7173L96.7469 19.9967C95.9288 20.3233 95.2524 20.5514 94.7178 20.6838C94.1825 20.8168 93.4691 20.8828 92.5768 20.8828C91.6935 20.8828 90.9878 20.6471 90.4579 20.1763C89.9275 19.7038 89.6123 19.1036 89.5094 18.3732L89.5381 18.2933H98.1541V15.9547C98.1541 13.9656 97.5728 12.39 96.4114 11.2274C95.2512 10.0654 93.6473 9.48433 91.6032 9.48433ZM93.5552 15.5067H89.4975L89.4556 15.4414C89.5304 14.6749 89.7373 14.063 90.077 13.6051C90.4155 13.1483 90.925 12.9191 91.6038 12.9191C92.273 12.9191 92.7646 13.1127 93.0821 13.5001C93.3979 13.8874 93.5564 14.4422 93.5564 15.1637L93.5552 15.5067ZM107.418 9.48433C105.177 9.47567 103.456 10.1605 102.251 11.5383C101.048 12.9156 100.445 14.6918 100.445 16.8659V17.3682C100.445 19.3573 101.108 21.0128 102.432 22.3335C103.758 23.6548 105.53 24.3145 107.751 24.3145C108.951 24.3145 110.074 24.1628 111.12 23.8589C112.166 23.5556 113.018 23.1753 113.678 22.7173L112.563 19.9967C111.745 20.3233 111.069 20.5514 110.534 20.6838C109.998 20.8168 109.285 20.8828 108.393 20.8828C107.51 20.8828 106.804 20.6471 106.274 20.1763C105.743 19.7038 105.428 19.1036 105.325 18.3732L105.353 18.2933H113.97V15.9547C113.97 13.9656 113.389 12.39 112.227 11.2274C111.065 10.0654 109.463 9.48433 107.418 9.48433ZM109.369 15.5067H105.313L105.271 15.4414C105.346 14.6749 105.552 14.063 105.891 13.6051C106.229 13.1483 106.739 12.9191 107.418 12.9191C108.087 12.9191 108.58 13.1127 108.897 13.5001C109.214 13.8874 109.371 14.4422 109.371 15.1637V15.5073H109.369V15.5067ZM123.652 20.3309C123.067 20.3309 122.615 20.1863 122.299 19.8958C121.984 19.6053 121.825 19.1905 121.825 18.6538V12.8637H124.277V9.77258H121.825V3.41425H117.099V9.77258H114.923V12.8637H117.099V19.0779C117.099 20.7241 117.619 21.9876 118.66 22.8684C119.7 23.7498 121.267 23.9406 122.41 23.9406C122.786 23.9406 125.409 23.912 125.409 23.912V20.3263C125.409 20.3263 123.941 20.3309 123.652 20.3309Z" fill="#1E1B1B"/>
<path d="M5.90595 4.662V10.2626C5.90595 11.1813 5.90595 12.2132 4 12.2132V13.7264V13.7468V15.2221C5.90595 15.2221 5.90595 16.2534 5.90595 17.1727V22.7728C5.90595 27.1192 8.28734 27.4348 12.3367 27.4348V24.0543C10.4307 24.0543 9.71666 23.7737 9.71666 22.6893V17.1442C9.71666 15.8637 9.80457 14.5262 8.68683 13.7171C9.80457 12.9092 9.71666 11.5716 9.71666 10.29V4.746C9.71666 3.66275 10.4313 3.381 12.3367 3.381V8.02092e-07C8.28734 -0.000581727 5.90595 0.315002 5.90595 4.662ZM16.6216 4.48058C15.5804 5.36025 15.0601 6.62375 15.0601 8.26992V9.74867H12.8851V12.8386H15.0601V24.0362H19.7864V12.8386H22.7144V9.74867H19.7864V8.694C19.7864 8.15733 19.9443 7.74375 20.2601 7.45325C20.5759 7.16275 21.0274 7.01808 21.6129 7.01808C21.9005 7.01808 23.3699 7.02275 23.3699 7.02275V3.437C23.3699 3.437 20.7463 3.40842 20.3713 3.40842C19.2303 3.40842 17.6628 3.59975 16.6216 4.48058ZM25.4487 7.00992H30.1756V3.437H25.4487V7.00992ZM25.4487 24.0368H30.1756V9.74867H25.4487V24.0368ZM41.8314 9.48442C40.9391 9.48442 40.1299 9.68508 39.4051 10.0852C38.6803 10.4854 38.0715 11.0431 37.5787 11.7553L37.3975 9.74867H32.9774V24.0362H37.6762V13.7637C37.9178 13.4995 38.2084 13.2913 38.5475 13.1431C38.8866 12.9949 39.2747 12.9185 39.7119 12.9185C40.4092 12.9185 40.9367 13.0882 41.2943 13.4266C41.652 13.7661 41.8314 14.3436 41.8314 15.1632V24.0374H46.5439V15.1766C46.5439 13.1956 46.1277 11.7518 45.2964 10.8447C44.4645 9.93767 43.3091 9.48442 41.8314 9.48442ZM60.7964 16.9919C59.9089 16.31 58.5442 15.7961 56.704 15.4531C55.533 15.2431 54.7538 15.0039 54.3687 14.7397C53.9829 14.4766 53.7898 14.154 53.7898 13.776C53.7898 13.3793 53.9572 13.0556 54.2915 12.7995C54.6258 12.544 55.0397 12.4157 55.5324 12.4157C56.2016 12.4157 56.6873 12.5615 56.9893 12.852C57.2913 13.1425 57.4426 13.5695 57.4426 14.1324H62.0158L62.0439 14.0537C62.1001 12.705 61.5332 11.6089 60.3431 10.759C59.153 9.90908 57.5538 9.48383 55.5462 9.48383C53.6402 9.48383 52.1302 9.9225 51.0143 10.7987C49.8989 11.6748 49.3415 12.7412 49.3415 13.9994C49.3415 15.1877 49.7877 16.1262 50.68 16.8122C51.5722 17.4994 52.8969 18.0052 54.6539 18.3312C55.7693 18.5512 56.5383 18.7997 56.9612 19.0767C57.3846 19.3544 57.5957 19.67 57.5957 20.02C57.5957 20.4517 57.433 20.7853 57.1077 21.0169C56.7823 21.2503 56.3039 21.3687 55.6718 21.3687C54.9099 21.3687 54.3214 21.2176 53.9082 20.9189C53.4943 20.6202 53.2784 20.1314 53.2599 19.4536H48.9935L48.966 19.5323C48.9104 20.748 49.4791 21.8487 50.674 22.834C51.8683 23.8204 53.4925 24.3127 55.5468 24.3127C57.5269 24.3127 59.1183 23.8968 60.3221 23.0644C61.5266 22.2326 62.1282 21.175 62.1282 19.8888C62.1282 18.6398 61.6839 17.6738 60.7964 16.9919ZM77.6198 18.0285H77.5361L75.0548 9.74983H72.0844L69.6306 18.0956H69.5469L67.8879 9.74983H63.5378L67.0931 24.0374H71.0677L73.5346 16.4582H73.6183L76.0727 24.0374H80.0604L83.602 9.74983H79.2519L77.6198 18.0285ZM91.6032 9.48433C89.3629 9.47567 87.64 10.1605 86.4367 11.5383C85.2317 12.9156 84.63 14.6918 84.63 16.8659V17.3682C84.63 19.3573 85.2927 21.0128 86.6161 22.3335C87.9408 23.6548 89.7146 24.3145 91.9363 24.3145C93.1354 24.3145 94.2579 24.1628 95.3038 23.8589C96.3492 23.5556 97.2026 23.1753 97.8617 22.7173L96.7469 19.9967C95.9288 20.3233 95.2524 20.5514 94.7178 20.6838C94.1825 20.8168 93.4691 20.8828 92.5768 20.8828C91.6935 20.8828 90.9878 20.6471 90.4579 20.1763C89.9275 19.7038 89.6123 19.1036 89.5094 18.3732L89.5381 18.2933H98.1541V15.9547C98.1541 13.9656 97.5728 12.39 96.4114 11.2274C95.2512 10.0654 93.6473 9.48433 91.6032 9.48433ZM93.5552 15.5067H89.4975L89.4556 15.4414C89.5304 14.6749 89.7373 14.063 90.077 13.6051C90.4155 13.1483 90.925 12.9191 91.6038 12.9191C92.273 12.9191 92.7646 13.1127 93.0821 13.5001C93.3979 13.8874 93.5564 14.4422 93.5564 15.1637L93.5552 15.5067ZM107.418 9.48433C105.177 9.47567 103.456 10.1605 102.251 11.5383C101.048 12.9156 100.445 14.6918 100.445 16.8659V17.3682C100.445 19.3573 101.108 21.0128 102.432 22.3335C103.758 23.6548 105.53 24.3145 107.751 24.3145C108.951 24.3145 110.074 24.1628 111.12 23.8589C112.166 23.5556 113.018 23.1753 113.678 22.7173L112.563 19.9967C111.745 20.3233 111.069 20.5514 110.534 20.6838C109.998 20.8168 109.285 20.8828 108.393 20.8828C107.51 20.8828 106.804 20.6471 106.274 20.1763C105.743 19.7038 105.428 19.1036 105.325 18.3732L105.353 18.2933H113.97V15.9547C113.97 13.9656 113.389 12.39 112.227 11.2274C111.065 10.0654 109.463 9.48433 107.418 9.48433ZM109.369 15.5067H105.313L105.271 15.4414C105.346 14.6749 105.552 14.063 105.891 13.6051C106.229 13.1483 106.739 12.9191 107.418 12.9191C108.087 12.9191 108.58 13.1127 108.897 13.5001C109.214 13.8874 109.371 14.4422 109.371 15.1637V15.5073H109.369V15.5067ZM123.652 20.3309C123.067 20.3309 122.615 20.1863 122.299 19.8958C121.984 19.6053 121.825 19.1905 121.825 18.6538V12.8637H124.277V9.77258H121.825V3.41425H117.099V9.77258H114.923V12.8637H117.099V19.0779C117.099 20.7241 117.619 21.9876 118.66 22.8684C119.7 23.7498 121.267 23.9406 122.41 23.9406C122.786 23.9406 125.409 23.912 125.409 23.912V20.3263C125.409 20.3263 123.941 20.3309 123.652 20.3309Z" stroke="black" stroke-width="2" mask="url(#path-1-inside-1_528_550)"/>
</g>
<defs>
<filter id="filter0_d_528_550" x="0" y="0" width="129.409" height="35.4347" filterUnits="userSpaceOnUse" color-interpolation-filters="sRGB">
<feFlood flood-opacity="0" result="BackgroundImageFix"/>
<feColorMatrix in="SourceAlpha" type="matrix" values="0 0 0 0 0 0 0 0 0 0 0 0 0 0 0 0 0 0 127 0" result="hardAlpha"/>
<feOffset dy="4"/>
<feGaussianBlur stdDeviation="2"/>
<feComposite in2="hardAlpha" operator="out"/>
<feColorMatrix type="matrix" values="0 0 0 0 0 0 0 0 0 0 0 0 0 0 0 0 0 0 0.25 0"/>
<feBlend mode="normal" in2="BackgroundImageFix" result="effect1_dropShadow_528_550"/>
<feBlend mode="normal" in="SourceGraphic" in2="effect1_dropShadow_528_550" result="shape"/>
</filter>
</defs>
</svg>
